<svg width="18" height="18" fill="none" xmlns="http://www.w3.org/2000/svg"><path d="M1 1l1.799.32.833 10.173c.066.83.744 1.468 1.557 1.466h9.434c.776.001 1.434-.584 1.544-1.371l.82-5.816c.093-.65-.348-1.253-.98-1.347a7017.87 7017.87 0 00-12.92-.012m7.751 3.278h2.398" stroke="#fff" stroke-width="1.5" stroke-linecap="round" stroke-linejoin="round"/><path fill-rule="evenodd" clip-rule="evenodd" d="M4.81 16.032c.26 0 .47.217.47.484S5.07 17 4.81 17a.477.477 0 01-.471-.484c0-.267.21-.483.47-.483zm9.755 0c.26 0 .471.217.471.484a.478.478 0 01-.471.484.477.477 0 01-.47-.484c0-.267.21-.483.47-.483z" fill="#363853" stroke="#fff" stroke-width="1.5" stroke-linecap="round" stroke-linejoin="round"/></svg>